<?xml version="1.0" encoding="UTF-8"?>
<svg width="39px" height="37px" viewBox="0 0 39 37" version="1.1" xmlns="http://www.w3.org/2000/svg" xmlns:xlink="http://www.w3.org/1999/xlink">
    <!-- Generator: Sketch 61.2 (89653) - https://sketch.com -->
    <title>Rond bleu</title>
    <desc>Created with Sketch.</desc>
    <g id="Uncle-J" stroke="none" stroke-width="1" fill="none" fill-rule="evenodd">
        <g id="Reseller" transform="translate(-648.000000, -362.000000)">
            <g id="Rond-bleu" transform="translate(650.000000, 362.000000)">
                <path d="M36.2346228,16.2436304 C36.2346228,25.2149735 28.9623355,32.4872608 19.9909924,32.4872608 C11.0196493,32.4872608 3.74736203,25.2149735 3.74736203,16.2436304 C3.74736203,7.27228728 11.0196493,-2.72166263e-13 19.9909924,-2.72166263e-13 C28.9623355,-2.72166263e-13 36.2346228,7.27228728 36.2346228,16.2436304" id="Fill-6" fill="#3FEBDF"></path>
                <path d="M31.1767169,20.0496796 C31.1767169,28.6585028 24.1971816,35.6380381 15.5883585,35.6380381 C6.97953531,35.6380381 5.97793755e-13,28.6585028 5.97793755e-13,20.0496796 C5.97793755e-13,11.4408565 6.97953531,4.46132116 15.5883585,4.46132116 C24.1971816,4.46132116 31.1767169,11.4408565 31.1767169,20.0496796 Z" id="Stroke-8" stroke="#17103C" stroke-width="2.73599973" stroke-linecap="round" stroke-linejoin="round"></path>
            </g>
        </g>
    </g>
</svg>