<svg version="1.2" xmlns="http://www.w3.org/2000/svg" viewBox="0 0 500 175" width="500" height="175">
	<title>Nouveau projet</title>
	<style>
		.s0 { fill: #f0efea } 
		.s1 { fill: #00bcd4 } 
	</style>
	<path id=" CAMARA©  WORK" class="s0" aria-label=" CAMARA©
 WORK"  d=""/>
	<path id=" CAMARA©  WORK" class="s1" aria-label=" CAMARA©
 WORK"  d="m19.5 61c0 18.5 12.2 31.4 30.7 31.4 15.5 0 26.5-8.9 29.6-22.9h-18.5c-2.1 4.7-6.3 7.2-11.3 7.2-7.9 0-13.1-6.1-13.1-15.7 0-9.4 5.2-15.6 13.1-15.6 5 0 9.2 2.6 11.3 7.2h18.5c-3.1-14-14.1-22.9-29.6-22.9-18.5 0-30.7 12.9-30.7 31.3zm110.8 31h18.1l-22.4-61.7h-19.8l-22.5 61.7h18.1l3.3-10.1h21.9zm-7.6-23.2h-13.3l6.6-19.9zm31.3 23.2h17.2v-34.3l11.7 34.3h14.4l11.6-34.1v34.1h17.1v-61.7h-20.6l-15.1 40.1-15.5-40.1h-20.8zm124.2 0h18.1l-22.4-61.7h-19.8l-22.5 61.7h18.1l3.3-10.1h21.9zm-7.6-23.2h-13.3l6.6-19.9zm64-17.8c0 4.2-2.4 6.5-7 6.5h-8.5v-12.9h8.5c4.6 0 7 2.6 7 6.4zm-32.7-20.7v61.7h17.2v-22.8h1.8l12.3 22.8h19.1l-13.9-24.1c9.2-2.8 13.6-9.8 13.6-17.8 0-11.1-7.7-19.8-23-19.8zm100.2 61.7h18.1l-22.4-61.7h-19.8l-22.5 61.7h18l3.4-10.1h21.8zm-7.6-23.2h-13.2l6.6-19.9zm29.4-8c0 18.6 12.6 31.8 30.9 31.8 18.4 0 30.9-13.2 30.9-31.8 0-18.5-12.5-31.5-30.9-31.5-18.3 0-30.9 13-30.9 31.5zm56.2 0c0 15.9-9.7 26.4-25.3 26.4-15.6 0-25.3-10.5-25.3-26.4 0-15.9 9.7-26.2 25.3-26.2 15.6 0 25.3 10.3 25.3 26.2zm-6.6-4.4h-14.5c-0.6-2-2.1-3.6-4.6-3.6-3.3 0-5.4 2.6-5.4 8.1 0 5.5 2.1 8.1 5.4 8.1 2.7 0 3.9-1.7 4.6-3.6h14.5c-1.6 9.2-9.1 15-18.5 15-11.4 0-19.6-7.5-19.6-19.5 0-12 8.2-19.5 19.6-19.5 9.4 0 16.9 5.7 18.5 15zm-438.3 97.6h5.5l9.1-30.4 8.7 30.4h5.6l10.9-37.8h-5.3l-8.3 31.9-8.7-31.9h-5.5l-9.1 32-8.2-32h-5.3zm81.3-18.9c0-11.4-8.3-19.3-18.9-19.3-10.6 0-19 7.9-19 19.3 0 11.3 8.4 19.2 19 19.2 10.6 0 18.9-7.9 18.9-19.2zm-32.9 0c0-9.3 6-15 14-15 7.9 0 13.9 5.7 13.9 15 0 9.2-6 15-13.9 15-8 0-14-5.8-14-15zm59.6-7.8c0 4.2-2.4 7.3-8 7.3h-7.2v-14.3h7.2c5.6 0 8 2.7 8 7zm-20.2-11.1v37.8h5v-15.5h5.9l9 15.5h5.9l-9.5-15.9c6.4-1.4 9-6 9-10.8 0-6.2-4.2-11.1-13.1-11.1zm53.4 37.8h6.5l-17.3-18.9 17.1-18.9h-6.2l-15.6 17.5v-17.5h-5v37.8h5v-17.3z"/>
</svg>